<svg width="18" height="21" viewBox="0 0 18 21" fill="none" xmlns="http://www.w3.org/2000/svg">
<path fill-rule="evenodd" clip-rule="evenodd" d="M8.72068 0.0218849C7.3862 0.173049 6.30555 0.699277 5.37571 1.65073C4.42616 2.62238 3.92485 3.8651 3.92297 5.25216C3.92226 5.76373 3.95874 6.07569 4.06867 6.49791C4.33246 7.51135 4.76893 8.26678 5.4982 8.9721C6.2672 9.71588 7.12185 10.1639 8.21189 10.3947C8.74908 10.5084 9.73086 10.5084 10.268 10.3947C11.3581 10.1639 12.2127 9.71588 12.9817 8.9721C13.711 8.26678 14.1475 7.51135 14.4113 6.49791C14.5212 6.07569 14.5577 5.76373 14.557 5.25216C14.5558 4.39771 14.3923 3.68992 14.0248 2.94778C13.3783 1.64249 12.1488 0.616418 10.7543 0.218597C10.1226 0.0383241 9.28797 -0.042371 8.72068 0.0218849ZM5.429 12.4692C4.21803 12.6689 3.14472 13.2059 2.27744 14.046C1.50929 14.7901 1.01606 15.6153 0.718277 16.6546C0.541094 17.2729 0.519043 17.5719 0.519043 19.3553V21H9.23997H17.9609V19.3553C17.9609 17.2802 17.9217 16.9719 17.5333 15.991C16.8912 14.3696 15.3846 13.0568 13.6345 12.5936C12.9585 12.4147 12.931 12.4136 9.19605 12.4182C6.46562 12.4215 5.65131 12.4325 5.429 12.4692Z" fill="black"/>
</svg>
