<svg width="23" height="22" viewBox="0 0 23 22" fill="none" xmlns="http://www.w3.org/2000/svg">
<path fill-rule="evenodd" clip-rule="evenodd" d="M0.666748 1.65201V3.30403H1.88496H3.10313L4.03638 9.6804C4.54966 13.1874 4.98576 16.1611 5.00546 16.2885L5.04132 16.5201H12.5637H20.086L20.1044 16.4295C20.1146 16.3796 20.5463 13.4468 21.0637 9.91209C21.5812 6.37738 22.0128 3.44457 22.023 3.39469L22.0414 3.30403H14.0362H6.03106L6.01161 3.17308C6.00092 3.10107 5.9204 2.42564 5.83263 1.67216C5.74487 0.918681 5.66363 0.234223 5.65206 0.151099L5.63104 0H3.14889H0.666748V1.65201ZM6.53454 17.666C6.1963 17.759 5.88621 17.9634 5.61893 18.2695C5.32809 18.6027 5.20102 18.8529 5.10395 19.2836C5.01533 19.6769 5.01533 19.9311 5.10384 20.324C5.20063 20.7534 5.36281 21.078 5.62962 21.3764C6.01356 21.8057 6.43623 22 6.98644 22C7.54498 22 7.97987 21.7963 8.35657 21.3581C8.62611 21.0446 8.77377 20.7466 8.86903 20.324C8.95754 19.9311 8.95754 19.6769 8.86892 19.2836C8.77193 18.8532 8.64496 18.603 8.35394 18.2689C7.87119 17.7145 7.18494 17.4871 6.53454 17.666ZM18.2076 17.652C18.1209 17.6713 17.9312 17.7511 17.7862 17.8292C17.4494 18.0108 17.0616 18.4395 16.9004 18.8085C16.4511 19.8373 16.7358 21.0234 17.5859 21.664C17.8896 21.8928 18.109 21.9689 18.5252 21.9898C18.9976 22.0135 19.2604 21.9418 19.6355 21.6869C20.0895 21.3784 20.3777 20.9299 20.5157 20.3175C20.6028 19.931 20.6025 19.6753 20.5142 19.2836C20.4172 18.8532 20.2902 18.603 19.9992 18.2689C19.7269 17.9561 19.3776 17.7341 19.0294 17.6523C18.8124 17.6013 18.4361 17.6012 18.2076 17.652Z" fill="black"/>
</svg>
